<svg width="44" height="45" viewBox="0 0 44 45" fill="none" xmlns="http://www.w3.org/2000/svg">
<ellipse cx="22" cy="22.4132" rx="22" ry="21.9394" fill="#72A7D3"/>
<path d="M31 20C31 27 22 33 22 33C22 33 13 27 13 20C13 17.6131 13.9482 15.3239 15.636 13.636C17.3239 11.9482 19.6131 11 22 11C24.3869 11 26.6761 11.9482 28.364 13.636C30.0518 15.3239 31 17.6131 31 20Z" stroke="black" stroke-width="2" stroke-linecap="round" stroke-linejoin="round"/>
<path d="M22 23C23.6569 23 25 21.6569 25 20C25 18.3431 23.6569 17 22 17C20.3431 17 19 18.3431 19 20C19 21.6569 20.3431 23 22 23Z" stroke="black" stroke-width="2" stroke-linecap="round" stroke-linejoin="round"/>
</svg>
