<svg width="92" height="92" viewBox="0 0 92 92" fill="none" xmlns="http://www.w3.org/2000/svg">
<g clip-path="url(#clip0_141_2)">
<path d="M101.2 -9.19998H-9.20007V101.2H101.2V-9.19998Z" fill="white"/>
<path d="M101.2 -9.19998H-9.20007V101.2H101.2V-9.19998Z" fill="#022D41"/>
<path d="M33.6221 45.7441C33.6221 46.2836 33.1851 46.7216 32.6446 46.7216C32.105 46.7216 31.6671 46.2836 31.6671 45.7441C31.6671 45.2036 32.105 44.7666 32.6446 44.7666C33.1851 44.7666 33.6221 45.2036 33.6221 45.7441Z" fill="white"/>
<mask id="mask0_141_2" style="mask-type:luminance" maskUnits="userSpaceOnUse" x="9" y="31" width="34" height="30">
<path d="M9.20007 31.7256H42.6881V60.2456H9.20007V31.7256Z" fill="white"/>
</mask>
<g mask="url(#mask0_141_2)">
<path d="M20.7585 41.3598L20.7557 40.7742C22.0207 40.4129 23.164 39.6875 24.036 38.6803C25.1084 37.444 25.6978 35.8608 25.6978 34.2221V31.7237L20.5477 32.1828C19.3881 32.2863 18.3052 32.7894 17.4782 33.58C16.6511 32.7894 15.5682 32.2863 14.4077 32.1828L9.25854 31.7237V34.2221C9.25854 35.8608 9.84792 37.444 10.9203 38.6812C11.7924 39.6875 12.9357 40.4129 14.2016 40.7742L14.1949 42.3373C14.1949 48.9009 18.6751 54.5704 24.9647 56.1325C24.9666 57.2058 25.164 58.3386 25.6796 59.4627L26.0514 60.2734L26.8928 59.9773C28.8306 59.2959 30.4176 58.006 31.5561 56.2034C37.997 54.7496 42.6268 48.9881 42.6268 42.3373V41.3598H20.7585ZM32.6888 53.8325C33.0377 52.8339 33.2063 51.958 33.2849 51.4165C35.2466 50.3595 36.826 48.6881 37.7661 46.6584L35.9922 45.8371C35.1661 47.6177 33.7334 49.06 31.9576 49.8976L31.4344 50.1429L31.398 50.7198C31.3951 50.7735 31.0357 55.7348 27.1334 57.7501C26.2469 54.4429 28.4865 51.0849 28.5115 51.0485L27.7036 50.4975L26.8976 49.9455C26.8152 50.0643 25.6451 51.8046 25.1659 54.165C19.8855 52.7246 16.1499 47.9042 16.1499 42.3411L16.1633 39.1498L15.3296 39.0233C14.1949 38.8499 13.1542 38.2739 12.398 37.3999C11.6343 36.5192 11.2135 35.3903 11.2135 34.2221V33.8608L14.2342 34.1311C15.2261 34.2192 16.126 34.7808 16.6415 35.6328L16.6665 35.6749L17.5587 36.8623L18.3158 35.6328C18.8304 34.7808 19.7303 34.2192 20.7221 34.1311L23.7428 33.8608V34.2221C23.7428 35.3903 23.3221 36.5192 22.5583 37.3999C21.8022 38.273 20.7614 38.8499 19.6268 39.0233L18.793 39.1498L18.8122 43.3148H40.6334C40.253 48.0863 37.1135 52.188 32.6888 53.8325Z" fill="white"/>
</g>
<path d="M46.948 41.405H53.0085V43.038H48.696V44.6135H52.077V46.1852H48.696V47.9332H53.1235V49.5662H46.948V41.405Z" fill="white"/>
<path d="M58.0181 49.7426C57.3894 49.7426 56.8039 49.6295 56.2624 49.4052C55.7229 49.1781 55.2552 48.8724 54.8594 48.4891C54.4627 48.1038 54.1522 47.6524 53.9279 47.1359C53.7027 46.6203 53.5906 46.0702 53.5906 45.4876C53.5906 44.9049 53.7027 44.3558 53.9279 43.8392C54.1522 43.3208 54.4627 42.8694 54.8594 42.4861C55.2552 42.1008 55.7229 41.7951 56.2624 41.5699C56.8039 41.3457 57.3894 41.2326 58.0181 41.2326C58.5854 41.2326 59.0847 41.3188 59.5169 41.4894C59.9482 41.6581 60.3075 41.8449 60.5941 42.0491C60.9285 42.2896 61.217 42.5608 61.4604 42.8617L60.2912 44.0309C60.1226 43.8114 59.9242 43.6159 59.6971 43.4444C59.5025 43.2987 59.2649 43.1665 58.9841 43.0457C58.7052 42.9231 58.3832 42.8617 58.0181 42.8617C57.652 42.8617 57.3099 42.9307 56.9907 43.0687C56.6735 43.2048 56.3966 43.3907 56.1589 43.6284C55.9232 43.8642 55.7372 44.1411 55.5992 44.4602C55.4632 44.7803 55.3961 45.1224 55.3961 45.4876C55.3961 45.8537 55.4632 46.1958 55.5992 46.5149C55.7372 46.8321 55.9232 47.1091 56.1589 47.3467C56.3966 47.5825 56.6735 47.7684 56.9907 47.9064C57.3099 48.0425 57.652 48.1096 58.0181 48.1096C58.3985 48.1096 58.732 48.0502 59.0186 47.9294C59.307 47.8096 59.5533 47.6754 59.7584 47.5269C59.9903 47.3563 60.1887 47.1618 60.3526 46.9442L61.5179 48.1096C61.2745 48.4114 60.9832 48.6836 60.6439 48.9261C60.3468 49.1283 59.9817 49.3152 59.5476 49.4857C59.1125 49.6563 58.6027 49.7426 58.0181 49.7426Z" fill="white"/>
<path d="M62.2157 41.405H63.9637V44.6135H67.4597V41.405H69.2077V49.5662H67.4597V46.2427H63.9637V49.5662H62.2157V41.405Z" fill="white"/>
<path d="M74.6259 49.7426C73.9973 49.7426 73.4117 49.6295 72.8703 49.4052C72.3307 49.1781 71.8631 48.8724 71.4673 48.4891C71.0705 48.1038 70.76 47.6524 70.5358 47.1359C70.3106 46.6203 70.1984 46.0702 70.1984 45.4876C70.1984 44.9049 70.3106 44.3558 70.5358 43.8392C70.76 43.3208 71.0705 42.8694 71.4673 42.4861C71.8631 42.1008 72.3307 41.7951 72.8703 41.5699C73.4117 41.3457 73.9973 41.2326 74.6259 41.2326C75.2565 41.2326 75.8421 41.3457 76.3816 41.5699C76.9202 41.7951 77.3878 42.1008 77.7846 42.4861C78.1833 42.8694 78.4947 43.3208 78.7199 43.8392C78.9442 44.3558 79.0573 44.9049 79.0573 45.4876C79.0573 46.0702 78.9442 46.6203 78.7199 47.1359C78.4947 47.6524 78.1833 48.1038 77.7846 48.4891C77.3878 48.8724 76.9202 49.1781 76.3816 49.4052C75.8421 49.6295 75.2565 49.7426 74.6259 49.7426ZM74.6259 48.1096C74.9911 48.1096 75.3332 48.0425 75.6533 47.9064C75.9724 47.7684 76.2493 47.5825 76.4851 47.3467C76.7228 47.1091 76.9087 46.8321 77.0448 46.5149C77.1828 46.1958 77.2518 45.8537 77.2518 45.4876C77.2518 45.1224 77.1828 44.7803 77.0448 44.4602C76.9087 44.1411 76.7228 43.8642 76.4851 43.6284C76.2493 43.3907 75.9724 43.2048 75.6533 43.0687C75.3332 42.9307 74.9911 42.8617 74.6259 42.8617C74.2598 42.8617 73.9177 42.9307 73.5986 43.0687C73.2814 43.2048 73.0044 43.3907 72.7668 43.6284C72.531 43.8642 72.3451 44.1411 72.2071 44.4602C72.071 44.7803 72.0039 45.1224 72.0039 45.4876C72.0039 45.8537 72.071 46.1958 72.2071 46.5149C72.3451 46.8321 72.531 47.1091 72.7668 47.3467C73.0044 47.5825 73.2814 47.7684 73.5986 47.9064C73.9177 48.0425 74.2598 48.1096 74.6259 48.1096Z" fill="white"/>
</g>
<defs>
<clipPath id="clip0_141_2">
<rect width="92" height="92" fill="white"/>
</clipPath>
</defs>
</svg>
